<svg xmlns="http://www.w3.org/2000/svg" xmlns:xlink="http://www.w3.org/1999/xlink" version="1.1" x="0px" y="0px" viewBox="0 0 100 125" enable-background="new 0 0 100 100" xml:space="preserve"><g enable-background="new    "><g><g><path fill='gray' fill-rule="evenodd" clip-rule="evenodd" d="M64,27.921v5.546C73.514,38.498,80,48.489,80,60c0,16.568-13.432,30-30,30     S20,76.568,20,60c0-11.511,6.486-21.502,16-26.533v-5.546C23.641,33.322,15,45.649,15,60c0,19.33,15.67,35,35,35s35-15.67,35-35     C85,45.649,76.359,33.322,64,27.921z"/></g></g></g><g enable-background="new    "><g><g><polygon fill='gray' points="60,21 52.488,25.133 58,8 47,14 41,38 47,35 44,53 49,50 47,71 58.566,40.372 53,44    "/></g></g></g></svg>
