<svg xmlns="http://www.w3.org/2000/svg" xmlns:xlink="http://www.w3.org/1999/xlink" version="1.1" x="0px" y="0px" viewBox="0 0 100 125" enable-background="new 0 0 100 100" xml:space="preserve"><path d="M86.8,64V48.5c0-0.4-0.3-0.8-0.8-0.8h-9c0-0.1,0-0.2,0-0.2c0-4.7-3.6-8.6-8.2-9V27c0-0.4-0.3-0.8-0.8-0.8h-9  c-0.4-4.6-4.2-8.2-9-8.2c-4.4,0-8,3.1-8.8,7.3H32c-0.4,0-0.8,0.3-0.8,0.8v12.5c-4.4,0.4-7.9,3.9-8.2,8.2h-9c-0.4,0-0.8,0.3-0.8,0.8  V64C8.6,64.4,5,68.3,5,73c0,5,4,9,9,9s9-4,9-9c0-4.7-3.6-8.6-8.2-9V48.3H23c0.4,4.6,4.3,8.2,9,8.2c4.7,0,8.6-3.6,9-8.2l8.3,0V64  c-4.6,0.4-8.2,4.2-8.2,9c0,5,4,9,9,9s9-4,9-9c0-4.7-3.6-8.6-8.2-9V48.3l8.3,0c0.4,4.6,4.3,8.2,9,8.2c4.4,0,8-3.1,8.8-7.2h8.4V64  c-4.6,0.4-8.2,4.2-8.2,9c0,5,4,9,9,9s9-4,9-9C95,68.3,91.4,64.4,86.8,64z M41,26.8c0,0.1,0,0.2,0,0.2c0,5,4,9,9,9  c4.7,0,8.6-3.6,9-8.2h8.3v10.8c-4.4,0.4-7.9,3.8-8.2,8.2l-18.1,0c-0.4-4.4-3.8-7.9-8.2-8.2V26.8H41z"/></svg>
