<svg xmlns="http://www.w3.org/2000/svg" xmlns:xlink="http://www.w3.org/1999/xlink" version="1.1" x="0px" y="0px" viewBox="0 0 100 125" enable-background="new 0 0 100 100" xml:space="preserve"><path stroke='black' fill='black' d="M27.4,57.3c3.8-1.6,5.7-5.8,4.6-9.6l36.8-15.2c1.9,3.6,6.2,5.2,10,3.6c4.1-1.7,6-6.3,4.3-10.4c-1.7-4.1-6.3-6-10.4-4.3  c-3.8,1.6-5.7,5.8-4.6,9.6L31.3,46.2c-1.9-3.6-6.2-5.2-10-3.6c-4.1,1.7-6,6.3-4.3,10.4C18.7,57,23.3,58.9,27.4,57.3z"/><path stroke='black' fill='black' d="M21.3,57.4c3.8,1.6,8.1,0,10-3.6l36.8,15.2c-1.2,3.9,0.8,8.1,4.6,9.6c4.1,1.7,8.7-0.2,10.4-4.3c1.7-4.1-0.2-8.7-4.3-10.4  c-3.8-1.6-8.1,0-10,3.6L31.9,52.4c1.2-3.9-0.8-8.1-4.6-9.6C23.3,41.1,18.7,43,17,47C15.3,51.1,17.2,55.7,21.3,57.4z"/></svg>
